<svg xmlns="http://www.w3.org/2000/svg" xmlns:xlink="http://www.w3.org/1999/xlink" width="500" zoomAndPan="magnify" viewBox="0 0 375 374.999991" height="500" preserveAspectRatio="xMidYMid meet" version="1.2"><defs><clipPath id="e11d2e5303"><path d="M 7.933594 7.933594 L 367.066406 7.933594 L 367.066406 367.066406 L 7.933594 367.066406 Z M 7.933594 7.933594 "/></clipPath><clipPath id="ebbb1d3879"><path d="M 187.5 7.933594 C 88.328125 7.933594 7.933594 88.328125 7.933594 187.5 C 7.933594 286.671875 88.328125 367.066406 187.5 367.066406 C 286.671875 367.066406 367.066406 286.671875 367.066406 187.5 C 367.066406 88.328125 286.671875 7.933594 187.5 7.933594 Z M 187.5 7.933594 "/></clipPath><clipPath id="3ad587132f"><path d="M 37.5 61 L 226 61 L 226 338 L 37.5 338 Z M 37.5 61 "/></clipPath></defs><g id="9fb6531c30"><g clip-rule="nonzero" clip-path="url(#e11d2e5303)"><g clip-rule="nonzero" clip-path="url(#ebbb1d3879)"><path style=" stroke:none;fill-rule:nonzero;fill:#ffffff;fill-opacity:1;" d="M 7.933594 7.933594 L 367.066406 7.933594 L 367.066406 367.066406 L 7.933594 367.066406 Z M 7.933594 7.933594 "/></g></g><path style=" stroke:none;fill-rule:evenodd;fill:#a08e79;fill-opacity:1;" d="M 38.160156 145.734375 C 37.5 162.109375 40.214844 180.976562 47.339844 202.558594 C 69.730469 270.398438 123.839844 316.355469 194.613281 349.246094 C 201.148438 345.285156 252.90625 309.824219 259.367188 305.417969 C 224.492188 220.546875 125.160156 354.460938 38.160156 145.734375 Z M 38.160156 145.734375 "/><path style=" stroke:none;fill-rule:evenodd;fill:#a08e79;fill-opacity:1;" d="M 199.972656 77.238281 C 196.667969 80.027344 193.4375 83.183594 190.28125 86.636719 C 189.105469 87.882812 186.609375 88.765625 186.902344 90.527344 C 197.035156 154.546875 310.023438 174.957031 259.21875 215.1875 C 206.066406 257.257812 236.09375 264.304688 269.644531 293.523438 C 301.214844 257.328125 336.527344 201.09375 312.8125 157.480469 L 311.347656 154.765625 L 316.777344 151.828125 L 318.246094 154.546875 C 335.792969 186.777344 325.957031 219.226562 310.757812 249.402344 C 312.152344 247.636719 313.546875 245.804688 314.871094 244.042969 C 330.875 222.382812 342.253906 200.210938 346.660156 178.921875 C 364.5 91.628906 266.78125 20.484375 199.972656 77.238281 Z M 266.195312 135.164062 C 279.777344 135.824219 289.980469 137.585938 297.324219 130.023438 C 288.144531 133.988281 278.234375 134.871094 267.367188 131.050781 L 267.148438 130.980469 L 267.222656 130.90625 C 262.523438 124.152344 261.277344 117.25 262.230469 110.203125 C 258.414062 116.734375 261.570312 123.34375 264.652344 132.519531 C 249.675781 129.289062 249.527344 108.734375 259.441406 98.601562 C 260.394531 105.796875 275.886719 115.265625 270.230469 126.867188 C 283.960938 112.109375 303.636719 130.832031 314.0625 129.363281 C 304.152344 146.617188 276.253906 154.179688 266.195312 135.164062 Z M 266.195312 135.164062 "/><g clip-rule="nonzero" clip-path="url(#3ad587132f)"><path style=" stroke:none;fill-rule:evenodd;fill:#c4bfbb;fill-opacity:1;" d="M 186.902344 90.230469 C 186.535156 89.863281 185.289062 88.542969 185.140625 88.398438 C 131.769531 34.433594 43.59375 65.5625 37.867188 147.351562 L 38.085938 148.011719 L 38.085938 146.394531 C 62.902344 205.128906 90.726562 237.582031 118.039062 255.199219 C 116.863281 237.214844 115.617188 221.871094 116.421875 218.125 C 117.523438 212.546875 112.679688 210.5625 108.421875 205.9375 C 102.988281 200.0625 98.289062 193.089844 96.085938 185.675781 C 92.121094 172.019531 98.804688 155.425781 110.402344 147.425781 C 125.234375 137.144531 158.125 144.195312 166.125 159.757812 C 169.945312 167.171875 169.0625 177.746094 165.539062 185.675781 C 168.183594 188.683594 180.296875 192.796875 169.0625 198.375 L 168.988281 201.53125 C 167.226562 211.738281 165.097656 206.523438 163.410156 209.828125 C 162.96875 212.546875 164.878906 217.242188 158.933594 218.273438 C 154.96875 219.007812 152.691406 216.875 148.800781 221.28125 C 147.257812 224.144531 148.726562 228.183594 152.175781 232.222656 C 166.273438 248.738281 174.714844 234.71875 191.675781 264.671875 L 211.203125 241.910156 C 223.757812 230.605469 238.371094 198.667969 203.863281 202.046875 C 196.007812 202.78125 186.976562 205.203125 185.507812 197.863281 C 184.996094 195.144531 186.683594 192.429688 185.949219 190.8125 C 184.480469 187.214844 180.882812 189.859375 183.96875 184.132812 C 179.636719 181.269531 182.71875 182.003906 183.234375 177.746094 C 183.304688 177.085938 183.304688 177.304688 183.234375 176.71875 C 182.71875 172.679688 176.113281 174.222656 175.890625 170.917969 C 176.917969 167.46875 181.617188 161.8125 183.894531 158.582031 C 187.269531 153.664062 185.800781 154.914062 184.703125 146.910156 C 184.1875 143.386719 183.894531 140.375 183.96875 137.441406 C 184.628906 126.941406 185.65625 119.085938 186.683594 113.578125 C 186.757812 113.136719 189.03125 109.027344 190.867188 105.648438 C 186.535156 98.75 189.105469 102.492188 187.269531 93.09375 C 187.125 92.289062 186.976562 91.40625 186.832031 90.527344 C 186.902344 90.378906 186.902344 90.304688 186.902344 90.230469 Z M 212.820312 337.648438 Z M 212.820312 337.648438 "/></g></g></svg>