<svg xmlns="http://www.w3.org/2000/svg" xmlns:xlink="http://www.w3.org/1999/xlink" width="500" zoomAndPan="magnify" viewBox="0 0 375 374.999991" height="500" preserveAspectRatio="xMidYMid meet" version="1.2"><defs><clipPath id="766f11eaef"><path d="M 2.726562 3.199219 L 372.273438 3.199219 L 372.273438 372.75 L 2.726562 372.75 Z M 2.726562 3.199219 "/></clipPath><clipPath id="718a0f2965"><path d="M 187.5 3.199219 C 85.453125 3.199219 2.726562 85.925781 2.726562 187.976562 C 2.726562 290.023438 85.453125 372.75 187.5 372.75 C 289.546875 372.75 372.273438 290.023438 372.273438 187.976562 C 372.273438 85.925781 289.546875 3.199219 187.5 3.199219 Z M 187.5 3.199219 "/></clipPath><clipPath id="d6c31a9627"><path d="M 21 17.410156 L 347 17.410156 L 347 348 L 21 348 Z M 21 17.410156 "/></clipPath><clipPath id="726fc72ba9"><path d="M 210 68 L 281 68 L 281 133 L 210 133 Z M 210 68 "/></clipPath><clipPath id="afd42b412c"><path d="M 207 55.335938 L 301.382812 78.65625 L 285.015625 144.890625 L 190.632812 121.570312 Z M 207 55.335938 "/></clipPath><clipPath id="f2c6a45c59"><path d="M 207 55.335938 L 301.382812 78.65625 L 285.015625 144.890625 L 190.632812 121.570312 Z M 207 55.335938 "/></clipPath></defs><g id="95b2502d3b"><g clip-rule="nonzero" clip-path="url(#766f11eaef)"><g clip-rule="nonzero" clip-path="url(#718a0f2965)"><path style=" stroke:none;fill-rule:nonzero;fill:#ffffff;fill-opacity:1;" d="M 2.726562 3.199219 L 372.273438 3.199219 L 372.273438 372.75 L 2.726562 372.75 Z M 2.726562 3.199219 "/></g></g><g clip-rule="nonzero" clip-path="url(#d6c31a9627)"><path style=" stroke:none;fill-rule:evenodd;fill:#a08e79;fill-opacity:1;" d="M 190.8125 149.609375 C 190.78125 149.511719 181.125 115.585938 132.496094 119.738281 C 131.554688 119.820312 130.710938 119.902344 129.96875 119.984375 C 106.472656 122.617188 87.972656 133.566406 75.746094 148.390625 C 63.550781 163.175781 57.582031 181.824219 59.125 199.914062 C 59.183594 200.578125 59.238281 201.148438 59.292969 201.628906 C 60.148438 209.253906 62.339844 217.894531 65.964844 226.554688 C 71.726562 240.320312 81.089844 254.074219 94.410156 263.757812 C 107.664062 273.390625 124.898438 279.003906 146.496094 276.582031 C 156.167969 275.496094 166.71875 272.804688 178.195312 268.148438 L 178.253906 267.703125 C 178.296875 267.410156 178.34375 267.089844 178.394531 266.75 L 178.410156 266.652344 L 178.46875 266.289062 L 178.519531 265.988281 L 178.566406 265.703125 L 178.636719 265.308594 L 178.691406 265.015625 L 178.773438 264.574219 L 178.824219 264.308594 L 178.929688 263.777344 L 178.976562 263.535156 L 179.109375 262.90625 L 179.144531 262.738281 C 179.265625 262.171875 179.398438 261.585938 179.546875 260.976562 L 179.558594 260.917969 C 179.625 260.644531 179.695312 260.363281 179.769531 260.078125 L 179.820312 259.871094 C 179.882812 259.628906 179.949219 259.386719 180.015625 259.136719 L 180.082031 258.894531 C 180.148438 258.648438 180.214844 258.402344 180.285156 258.152344 L 180.351562 257.917969 C 180.429688 257.644531 180.507812 257.375 180.589844 257.097656 L 180.644531 256.925781 C 180.738281 256.609375 180.835938 256.285156 180.941406 255.960938 L 180.957031 255.914062 C 181.40625 254.496094 181.917969 253.019531 182.507812 251.511719 L 182.550781 251.40625 C 182.683594 251.074219 182.816406 250.742188 182.953125 250.410156 L 183.027344 250.230469 C 183.160156 249.910156 183.296875 249.589844 183.4375 249.269531 L 183.515625 249.085938 C 183.652344 248.769531 183.796875 248.449219 183.941406 248.128906 L 184.027344 247.941406 C 184.1875 247.601562 184.347656 247.257812 184.515625 246.914062 L 184.566406 246.808594 C 185.3125 245.273438 186.144531 243.726562 187.066406 242.199219 L 187.171875 242.023438 C 187.367188 241.710938 187.5625 241.394531 187.761719 241.082031 L 187.910156 240.851562 C 188.101562 240.550781 188.300781 240.253906 188.503906 239.953125 L 188.660156 239.71875 C 188.863281 239.421875 189.070312 239.128906 189.277344 238.835938 L 189.441406 238.605469 C 189.664062 238.296875 189.894531 237.992188 190.125 237.6875 L 190.253906 237.519531 C 191.097656 236.417969 191.996094 235.339844 192.960938 234.296875 L 193.011719 234.242188 C 193.304688 233.921875 193.605469 233.609375 193.910156 233.296875 L 194.117188 233.089844 C 194.375 232.832031 194.636719 232.574219 194.902344 232.320312 L 195.175781 232.066406 C 195.429688 231.824219 195.6875 231.589844 195.953125 231.351562 L 196.238281 231.097656 C 196.503906 230.867188 196.769531 230.640625 197.042969 230.414062 L 197.347656 230.164062 C 197.628906 229.929688 197.921875 229.703125 198.210938 229.476562 L 198.476562 229.273438 C 198.808594 229.019531 199.148438 228.773438 199.492188 228.53125 L 199.65625 228.410156 C 200.46875 227.839844 201.308594 227.296875 202.179688 226.777344 C 202.257812 226.730469 202.335938 226.6875 202.414062 226.640625 C 202.761719 226.4375 203.117188 226.238281 203.472656 226.042969 C 203.605469 225.972656 203.738281 225.902344 203.867188 225.832031 C 204.1875 225.664062 204.507812 225.496094 204.832031 225.335938 C 204.980469 225.265625 205.125 225.195312 205.273438 225.125 C 205.589844 224.972656 205.90625 224.824219 206.230469 224.679688 C 206.394531 224.605469 206.558594 224.535156 206.722656 224.460938 C 207.035156 224.324219 207.355469 224.195312 207.675781 224.066406 C 207.847656 223.996094 208.019531 223.925781 208.199219 223.855469 C 208.539062 223.726562 208.882812 223.597656 209.230469 223.476562 C 209.382812 223.421875 209.539062 223.363281 209.691406 223.3125 C 210.097656 223.171875 210.511719 223.039062 210.929688 222.910156 C 211.035156 222.878906 211.140625 222.84375 211.25 222.808594 C 212.308594 222.492188 213.398438 222.210938 214.523438 221.964844 C 214.695312 221.929688 214.867188 221.898438 215.039062 221.863281 C 215.4375 221.78125 215.835938 221.703125 216.238281 221.628906 C 216.445312 221.59375 216.65625 221.5625 216.863281 221.527344 C 217.230469 221.46875 217.601562 221.410156 217.980469 221.355469 C 218.214844 221.324219 218.457031 221.292969 218.699219 221.261719 C 219.058594 221.21875 219.425781 221.175781 219.792969 221.136719 C 220.042969 221.113281 220.292969 221.089844 220.542969 221.066406 C 220.917969 221.03125 221.300781 221.003906 221.683594 220.980469 C 221.929688 220.964844 222.171875 220.949219 222.421875 220.933594 C 222.816406 220.914062 223.21875 220.902344 223.621094 220.886719 C 223.875 220.878906 224.125 220.871094 224.382812 220.867188 C 224.8125 220.859375 225.253906 220.863281 225.695312 220.863281 C 225.917969 220.867188 226.136719 220.863281 226.359375 220.867188 C 227.027344 220.878906 227.710938 220.902344 228.398438 220.9375 C 226.015625 219.882812 222.777344 218.800781 218.378906 217.84375 L 218.054688 217.769531 L 217.734375 217.695312 L 217.414062 217.613281 L 217.101562 217.527344 L 216.789062 217.4375 L 216.480469 217.34375 L 216.179688 217.246094 C 216.078125 217.210938 215.976562 217.179688 215.878906 217.144531 L 215.582031 217.039062 L 215.285156 216.929688 L 214.996094 216.816406 L 214.710938 216.699219 L 214.425781 216.578125 L 214.144531 216.453125 L 213.871094 216.324219 L 213.597656 216.191406 L 213.328125 216.058594 L 213.0625 215.917969 L 212.800781 215.777344 L 212.539062 215.632812 L 212.285156 215.484375 L 212.03125 215.332031 L 211.539062 215.019531 L 211.296875 214.859375 L 211.058594 214.695312 L 210.824219 214.527344 L 210.59375 214.355469 L 210.367188 214.183594 L 210.144531 214.007812 L 209.925781 213.832031 L 209.707031 213.648438 L 209.496094 213.464844 L 209.289062 213.28125 L 209.285156 213.28125 L 208.878906 212.898438 L 208.683594 212.707031 L 208.488281 212.511719 L 208.296875 212.3125 L 208.109375 212.113281 L 207.929688 211.910156 L 207.925781 211.910156 L 207.75 211.707031 L 207.574219 211.5 L 207.402344 211.289062 L 207.234375 211.078125 L 207.070312 210.867188 L 207.066406 210.867188 L 206.910156 210.652344 L 206.90625 210.652344 L 206.75 210.433594 L 206.597656 210.214844 L 206.449219 209.996094 L 206.304688 209.773438 L 206.164062 209.550781 L 206.160156 209.550781 L 206.023438 209.328125 L 205.890625 209.097656 L 205.761719 208.871094 L 205.632812 208.640625 L 205.511719 208.410156 L 205.394531 208.179688 L 205.277344 207.945312 L 205.167969 207.710938 L 204.957031 207.242188 L 204.859375 207.003906 L 204.765625 206.765625 L 204.722656 206.652344 L 204.679688 206.542969 L 204.640625 206.433594 L 204.601562 206.320312 L 204.597656 206.320312 L 204.5625 206.210938 L 204.558594 206.210938 L 204.523438 206.097656 L 204.484375 205.988281 L 204.449219 205.875 L 204.414062 205.765625 L 204.34375 205.539062 L 204.3125 205.429688 L 204.277344 205.316406 L 204.214844 205.089844 L 204.1875 204.976562 L 204.15625 204.867188 L 204.101562 204.640625 L 204.078125 204.527344 L 204.074219 204.527344 L 204.003906 204.1875 L 204 204.1875 L 203.980469 204.074219 L 203.957031 203.960938 L 203.9375 203.847656 L 203.914062 203.734375 L 203.914062 203.730469 L 203.894531 203.617188 L 203.878906 203.503906 L 203.859375 203.390625 L 203.828125 203.164062 L 203.8125 203.046875 L 203.796875 202.933594 L 203.785156 202.820312 L 203.769531 202.707031 L 203.757812 202.589844 L 203.75 202.476562 L 203.738281 202.363281 L 203.730469 202.25 L 203.71875 202.132812 L 203.714844 202.019531 L 203.699219 201.792969 L 203.695312 201.675781 L 203.6875 201.449219 L 203.6875 201.335938 L 203.683594 201.222656 L 203.683594 200.992188 L 203.6875 200.878906 L 203.6875 200.765625 L 203.699219 200.425781 L 203.699219 200.421875 L 203.707031 200.3125 L 203.707031 200.308594 L 203.714844 200.195312 L 203.71875 200.082031 L 203.730469 199.96875 L 203.738281 199.855469 L 203.761719 199.628906 L 203.773438 199.519531 C 204.039062 197.070312 204.941406 194.703125 206.511719 192.640625 L 206.640625 192.472656 L 206.65625 192.453125 L 206.773438 192.304688 L 206.78125 192.296875 L 206.855469 192.203125 L 206.933594 192.113281 L 207 192.03125 L 207.085938 191.933594 L 207.136719 191.875 L 207.242188 191.757812 L 207.296875 191.699219 L 207.414062 191.566406 L 207.445312 191.535156 L 207.59375 191.378906 L 207.605469 191.367188 L 207.707031 191.261719 L 207.785156 191.183594 L 207.941406 191.03125 L 207.949219 191.023438 L 208.101562 190.878906 L 208.125 190.855469 L 208.148438 190.835938 L 208.292969 190.703125 L 208.34375 190.65625 L 208.46875 190.546875 L 208.539062 190.484375 L 208.636719 190.402344 L 208.726562 190.324219 L 208.824219 190.242188 L 208.90625 190.179688 L 209.015625 190.089844 L 209.101562 190.019531 L 209.121094 190.007812 L 209.269531 189.890625 L 209.300781 189.867188 L 209.476562 189.738281 L 209.484375 189.730469 L 209.671875 189.597656 L 209.683594 189.585938 L 209.859375 189.464844 L 209.894531 189.441406 L 210.054688 189.332031 L 210.109375 189.296875 L 210.148438 189.269531 L 210.304688 189.167969 L 210.371094 189.128906 L 210.496094 189.046875 L 210.828125 188.847656 L 210.851562 188.832031 L 211.007812 188.742188 L 211.058594 188.714844 L 211.242188 188.613281 L 211.269531 188.597656 L 211.480469 188.484375 L 211.484375 188.480469 L 211.699219 188.371094 L 211.769531 188.335938 L 211.953125 188.242188 L 212.003906 188.21875 L 212.195312 188.128906 L 212.253906 188.101562 L 212.445312 188.011719 L 212.488281 187.992188 L 212.699219 187.902344 L 212.75 187.878906 L 212.941406 187.796875 L 213.011719 187.769531 L 213.195312 187.695312 L 213.25 187.671875 L 213.300781 187.652344 L 213.515625 187.570312 L 213.542969 187.558594 L 213.785156 187.46875 L 213.789062 187.46875 L 214.035156 187.382812 L 214.0625 187.371094 L 214.308594 187.289062 L 214.429688 187.25 L 214.59375 187.199219 L 214.683594 187.171875 L 214.867188 187.113281 L 214.964844 187.085938 L 215.15625 187.03125 L 215.242188 187.007812 L 215.449219 186.953125 L 215.519531 186.933594 L 215.734375 186.878906 L 215.816406 186.855469 L 216.101562 186.789062 L 216.121094 186.785156 L 216.394531 186.722656 L 216.40625 186.71875 L 216.671875 186.664062 L 216.714844 186.652344 L 216.761719 186.644531 L 217.003906 186.597656 L 217.085938 186.582031 L 217.3125 186.539062 L 217.40625 186.523438 L 217.628906 186.488281 L 217.707031 186.476562 L 217.917969 186.441406 L 218.058594 186.421875 L 218.273438 186.390625 L 218.339844 186.382812 L 218.59375 186.347656 L 218.65625 186.339844 L 218.707031 186.335938 L 218.996094 186.300781 L 219.007812 186.300781 L 219.316406 186.269531 L 219.335938 186.269531 L 219.390625 186.261719 L 219.671875 186.238281 L 219.714844 186.234375 L 220.003906 186.214844 L 220.070312 186.207031 L 220.367188 186.191406 L 220.410156 186.1875 L 220.699219 186.171875 L 220.777344 186.167969 L 220.890625 186.164062 C 221.023438 185.046875 221.082031 183.910156 221.066406 182.761719 C 220.992188 176.3125 218.753906 169.367188 214.820312 163.648438 C 210.953125 158.03125 205.453125 153.648438 198.78125 152.195312 C 197.113281 151.835938 195.390625 151.652344 193.625 151.671875 C 192.300781 151.6875 191.175781 150.8125 190.816406 149.605469 Z M 147.777344 209.253906 C 150.492188 221.890625 145.757812 231.828125 131.078125 235.160156 C 152.09375 242.4375 162.21875 217.304688 147.777344 209.253906 Z M 185.0625 156.671875 C 186.421875 171.28125 180.707031 176.453125 171 177.269531 C 171 177.269531 184.777344 182.414062 189.6875 173.910156 C 194.597656 165.40625 188.597656 157.761719 185.0625 156.671875 Z M 292.367188 231.207031 C 291.980469 232.226562 252.375 219.703125 251.992188 197.925781 C 249.160156 196.019531 240.335938 191.273438 223.5 191.953125 L 223.460938 191.957031 C 223.386719 191.960938 223.308594 191.960938 223.234375 191.957031 L 223.230469 191.957031 L 222.945312 191.945312 L 222.941406 191.945312 L 222.660156 191.9375 L 222.65625 191.9375 L 222.378906 191.933594 L 221.824219 191.933594 L 221.554688 191.9375 L 221.550781 191.9375 L 221.289062 191.945312 L 221.285156 191.945312 L 221.023438 191.957031 L 221.019531 191.957031 L 220.761719 191.96875 L 220.757812 191.96875 L 220.503906 191.984375 L 220.5 191.984375 L 220.246094 192 L 220.242188 192 L 219.996094 192.023438 L 219.992188 192.023438 L 219.746094 192.046875 L 219.742188 192.046875 L 219.5 192.070312 L 219.496094 192.070312 L 219.257812 192.101562 L 219.253906 192.101562 L 219.015625 192.132812 L 218.78125 192.164062 L 218.777344 192.164062 L 218.546875 192.203125 L 218.542969 192.203125 L 218.089844 192.28125 L 218.085938 192.28125 L 217.867188 192.324219 L 217.863281 192.328125 L 217.644531 192.371094 L 217.425781 192.421875 L 217.214844 192.472656 L 217.210938 192.472656 L 217 192.523438 L 217 192.527344 L 216.585938 192.636719 L 216.585938 192.640625 L 216.386719 192.699219 L 216.382812 192.699219 L 216.1875 192.761719 L 216.183594 192.761719 L 215.992188 192.824219 L 215.988281 192.828125 L 215.796875 192.890625 L 215.796875 192.894531 L 215.609375 192.960938 L 215.605469 192.960938 L 215.421875 193.03125 L 215.238281 193.105469 L 215.058594 193.179688 L 215.054688 193.179688 L 214.878906 193.257812 L 214.707031 193.335938 L 214.703125 193.335938 L 214.535156 193.417969 L 214.53125 193.417969 L 214.367188 193.5 L 214.363281 193.5 L 214.199219 193.585938 L 214.039062 193.671875 L 214.039062 193.675781 L 213.878906 193.761719 L 213.722656 193.851562 L 213.570312 193.945312 L 213.566406 193.945312 L 213.417969 194.039062 L 213.390625 194.058594 C 213.3125 194.109375 213.234375 194.160156 213.15625 194.214844 L 213.125 194.234375 L 212.984375 194.332031 L 212.84375 194.433594 L 212.710938 194.535156 L 212.710938 194.539062 L 212.578125 194.640625 L 212.445312 194.746094 L 212.195312 194.964844 L 212.074219 195.074219 L 211.839844 195.300781 L 211.730469 195.414062 L 211.699219 195.445312 C 211.128906 196.347656 210.679688 197.359375 210.378906 198.496094 C 208.417969 205.957031 212.96875 209.261719 220.253906 212.320312 L 220.355469 212.34375 L 220.746094 212.433594 L 221.136719 212.527344 L 221.480469 212.609375 L 221.902344 212.714844 L 222.210938 212.792969 L 222.683594 212.917969 L 222.933594 212.984375 L 223.417969 213.121094 L 223.648438 213.183594 C 223.882812 213.25 224.113281 213.316406 224.339844 213.386719 L 224.40625 213.40625 L 224.972656 213.578125 L 225.261719 213.667969 L 225.632812 213.789062 L 225.886719 213.871094 L 226.277344 214.003906 L 226.523438 214.085938 L 226.949219 214.238281 L 227.113281 214.296875 C 227.296875 214.363281 227.480469 214.429688 227.660156 214.496094 L 227.710938 214.515625 L 227.777344 214.539062 L 228.292969 214.738281 L 228.445312 214.796875 L 228.828125 214.953125 L 229.046875 215.039062 L 229.371094 215.175781 L 229.609375 215.277344 L 229.875 215.394531 L 230.113281 215.5 L 230.484375 215.667969 L 230.582031 215.710938 L 230.621094 215.726562 C 230.78125 215.800781 230.9375 215.875 231.089844 215.953125 L 231.160156 215.984375 L 231.539062 216.171875 L 231.722656 216.265625 L 232.003906 216.410156 L 232.175781 216.5 L 232.433594 216.636719 L 232.605469 216.730469 L 232.9375 216.910156 L 233.007812 216.953125 C 233.148438 217.03125 233.285156 217.109375 233.421875 217.1875 L 233.425781 217.191406 C 233.558594 217.269531 233.691406 217.347656 233.820312 217.425781 L 233.90625 217.480469 L 234.191406 217.65625 L 234.308594 217.730469 L 234.546875 217.882812 L 234.691406 217.980469 L 234.898438 218.117188 L 235.015625 218.199219 C 235.234375 218.347656 235.445312 218.496094 235.644531 218.644531 L 235.675781 218.664062 L 235.753906 218.722656 L 235.964844 218.878906 L 236.066406 218.957031 L 236.261719 219.109375 L 236.347656 219.175781 L 236.5625 219.351562 L 236.621094 219.394531 L 236.839844 219.582031 L 236.890625 219.625 L 237.140625 219.839844 L 237.144531 219.84375 L 237.359375 220.03125 L 237.398438 220.070312 L 237.441406 220.109375 L 237.675781 220.328125 L 237.84375 220.492188 L 237.886719 220.53125 L 238.066406 220.714844 L 238.09375 220.742188 L 238.246094 220.898438 L 238.289062 220.945312 L 238.300781 220.957031 L 238.464844 221.132812 L 238.480469 221.152344 L 238.65625 221.347656 L 238.675781 221.371094 L 238.800781 221.511719 L 238.882812 221.609375 L 238.90625 221.636719 L 238.992188 221.742188 L 239.011719 221.765625 L 239.117188 221.898438 L 239.140625 221.929688 L 239.160156 221.953125 L 239.277344 222.109375 L 239.28125 222.109375 L 239.390625 222.257812 L 239.410156 222.285156 L 239.441406 222.328125 L 239.527344 222.449219 L 239.535156 222.460938 L 239.632812 222.601562 L 239.652344 222.632812 L 239.726562 222.742188 L 239.746094 222.769531 L 239.765625 222.800781 L 239.785156 222.835938 L 239.84375 222.925781 L 239.914062 223.046875 L 239.925781 223.058594 L 239.984375 223.15625 L 240 223.191406 L 240.042969 223.265625 L 240.097656 223.367188 L 240.132812 223.429688 L 240.1875 223.539062 L 240.195312 223.550781 C 240.527344 224.128906 240.660156 224.816406 240.527344 225.519531 C 240.234375 227.09375 238.722656 228.128906 237.148438 227.835938 C 236.402344 227.691406 235.667969 227.566406 234.945312 227.453125 C 234.699219 227.414062 234.464844 227.386719 234.222656 227.351562 C 233.75 227.28125 233.273438 227.210938 232.808594 227.15625 C 232.523438 227.117188 232.242188 227.089844 231.957031 227.058594 C 231.539062 227.015625 231.125 226.96875 230.714844 226.929688 C 230.433594 226.90625 230.15625 226.886719 229.875 226.867188 C 229.476562 226.835938 229.078125 226.808594 228.6875 226.785156 C 228.40625 226.769531 228.128906 226.761719 227.847656 226.75 C 227.46875 226.734375 227.089844 226.722656 226.71875 226.714844 C 226.441406 226.710938 226.167969 226.707031 225.894531 226.707031 C 225.527344 226.707031 225.160156 226.707031 224.800781 226.714844 C 224.53125 226.71875 224.261719 226.726562 223.996094 226.738281 C 223.648438 226.75 223.300781 226.765625 222.957031 226.785156 C 222.6875 226.800781 222.421875 226.816406 222.15625 226.835938 C 221.816406 226.863281 221.476562 226.890625 221.140625 226.925781 C 220.890625 226.949219 220.640625 226.972656 220.394531 227 C 220.050781 227.039062 219.714844 227.085938 219.382812 227.128906 C 219.144531 227.164062 218.902344 227.195312 218.667969 227.230469 C 218.332031 227.28125 218.003906 227.339844 217.675781 227.398438 C 217.453125 227.441406 217.226562 227.476562 217.007812 227.519531 C 216.640625 227.59375 216.28125 227.671875 215.917969 227.753906 C 215.75 227.792969 215.578125 227.828125 215.410156 227.867188 C 214.941406 227.980469 214.476562 228.101562 214.019531 228.230469 C 213.964844 228.246094 213.910156 228.257812 213.855469 228.273438 C 213.335938 228.417969 212.828125 228.578125 212.328125 228.742188 C 212.25 228.765625 212.175781 228.796875 212.097656 228.824219 C 211.683594 228.960938 211.273438 229.105469 210.875 229.257812 C 210.722656 229.3125 210.578125 229.375 210.429688 229.433594 C 210.109375 229.558594 209.785156 229.6875 209.472656 229.820312 C 209.300781 229.894531 209.132812 229.972656 208.960938 230.050781 C 208.675781 230.175781 208.390625 230.304688 208.109375 230.4375 C 207.945312 230.515625 207.78125 230.597656 207.621094 230.679688 C 207.339844 230.820312 207.058594 230.960938 206.785156 231.105469 C 206.628906 231.191406 206.476562 231.273438 206.320312 231.359375 C 206.054688 231.507812 205.789062 231.65625 205.527344 231.808594 C 205.367188 231.902344 205.210938 231.996094 205.054688 232.089844 C 204.800781 232.242188 204.550781 232.398438 204.304688 232.558594 C 204.152344 232.652344 204.003906 232.75 203.859375 232.847656 C 203.609375 233.011719 203.367188 233.179688 203.125 233.347656 C 202.980469 233.449219 202.839844 233.546875 202.699219 233.648438 C 202.453125 233.824219 202.214844 234.003906 201.980469 234.183594 C 201.851562 234.28125 201.722656 234.375 201.597656 234.476562 C 201.351562 234.667969 201.109375 234.863281 200.871094 235.058594 C 200.753906 235.15625 200.640625 235.246094 200.527344 235.34375 C 200.265625 235.5625 200.007812 235.789062 199.753906 236.015625 C 199.675781 236.085938 199.59375 236.15625 199.515625 236.230469 C 199.214844 236.5 198.921875 236.777344 198.632812 237.058594 L 198.53125 237.15625 C 197.875 237.792969 197.253906 238.449219 196.65625 239.121094 L 196.5625 239.226562 C 196.304688 239.515625 196.050781 239.8125 195.804688 240.109375 L 195.582031 240.378906 C 195.378906 240.625 195.179688 240.875 194.984375 241.125 L 194.75 241.425781 C 194.558594 241.675781 194.371094 241.925781 194.183594 242.175781 L 193.972656 242.464844 C 193.792969 242.714844 193.613281 242.96875 193.441406 243.222656 L 193.222656 243.539062 C 193.050781 243.789062 192.882812 244.042969 192.71875 244.296875 L 192.519531 244.605469 C 192.355469 244.859375 192.195312 245.117188 192.039062 245.375 L 191.847656 245.683594 C 191.691406 245.945312 191.542969 246.203125 191.390625 246.460938 L 191.214844 246.769531 C 191.0625 247.035156 190.914062 247.300781 190.769531 247.566406 L 190.617188 247.851562 C 190.453125 248.15625 190.292969 248.460938 190.136719 248.765625 L 190.058594 248.917969 C 189.886719 249.257812 189.71875 249.597656 189.554688 249.9375 L 189.519531 250.011719 C 188.988281 251.117188 188.503906 252.222656 188.066406 253.308594 L 188.050781 253.34375 C 187.914062 253.683594 187.78125 254.023438 187.652344 254.363281 L 187.589844 254.53125 L 187.441406 254.917969 C 186.976562 256.542969 186.574219 258.238281 186.246094 260.007812 C 185.105469 266.230469 186.417969 272.085938 189.507812 277.402344 C 190.484375 278.539062 191.515625 279.65625 192.605469 280.753906 C 203.226562 291.472656 218.898438 300.261719 235.964844 304.445312 C 240.214844 305.242188 244.484375 305.742188 248.667969 305.914062 C 264.410156 306.558594 282.765625 302.761719 298.25 293.816406 C 300.371094 292.191406 302.429688 290.402344 304.410156 288.4375 C 317.730469 275.242188 324.511719 262.371094 327.621094 251.066406 C 331.671875 236.347656 329.554688 224.34375 327.574219 217.796875 C 320.773438 202.726562 308.449219 195.410156 308.449219 195.410156 C 315.613281 197.441406 322.648438 201.777344 328.21875 208.230469 C 331.574219 206.742188 334.164062 204.984375 336.097656 203.050781 C 339.019531 200.128906 340.460938 196.773438 340.832031 193.335938 C 341.21875 189.777344 340.492188 186.070312 339.085938 182.609375 C 337.496094 178.695312 335.046875 175.125 332.34375 172.421875 C 328.902344 168.980469 323.738281 166.679688 319.3125 166.496094 C 317.578125 166.421875 316.011719 166.683594 314.804688 167.347656 C 313.761719 167.921875 312.957031 168.855469 312.546875 170.207031 C 311.6875 173.03125 312.300781 177.5 315.265625 184.058594 C 315.921875 185.519531 315.269531 187.234375 313.8125 187.890625 C 312.539062 188.464844 311.070312 188.042969 310.277344 186.957031 C 309.171875 185.660156 299.613281 175.089844 282.136719 175.089844 C 274.160156 175.089844 268.617188 177.308594 264.890625 180.640625 C 260.164062 184.863281 258.191406 190.972656 257.816406 196.613281 L 257.8125 196.703125 C 258.78125 222.265625 292.761719 230.15625 292.367188 231.203125 Z M 184.230469 199.160156 C 185.503906 205.085938 183.285156 209.75 176.398438 211.3125 C 190.429688 216.722656 191.914062 203.480469 184.230469 199.160156 Z M 173.722656 17.410156 C 105.5 18.136719 40.175781 77.289062 24.933594 150.957031 C 9.691406 224.628906 55.417969 305.554688 116.023438 332.046875 C 176.628906 358.539062 255.015625 352.734375 301.828125 308.457031 C 348.644531 264.183594 340.296875 229.527344 334.488281 217.734375 C 333.828125 216.390625 333.113281 215.101562 332.347656 213.867188 C 332.226562 213.515625 332.105469 213.183594 331.988281 212.875 C 335.367188 211.21875 338.074219 209.285156 340.203125 207.160156 C 344.136719 203.222656 346.082031 198.65625 346.59375 193.953125 C 347.089844 189.375 346.199219 184.71875 344.460938 180.4375 C 342.566406 175.777344 339.65625 171.53125 336.445312 168.320312 C 332.035156 163.910156 325.332031 160.957031 319.539062 160.714844 C 316.785156 160.597656 314.179688 161.078125 312.011719 162.269531 C 309.683594 163.554688 307.90625 165.601562 307.011719 168.53125 C 306.355469 170.6875 306.214844 173.328125 306.753906 176.511719 C 301.242188 172.925781 292.980469 169.285156 282.136719 169.285156 C 272.582031 169.285156 265.765625 172.105469 261.03125 176.335938 C 256.3125 180.550781 253.753906 186.105469 252.640625 191.644531 C 248.066406 189.253906 239.617188 186.117188 226.722656 186.101562 C 226.824219 184.988281 226.863281 183.851562 226.851562 182.699219 C 226.761719 175.132812 224.160156 167.015625 219.582031 160.363281 C 214.933594 153.609375 208.234375 148.316406 200.003906 146.53125 C 198.605469 146.226562 197.152344 146.023438 195.648438 145.9375 C 192.511719 138.070312 178.023438 110.027344 132.019531 113.953125 C 131.210938 114.023438 130.3125 114.113281 129.332031 114.222656 C 124.988281 114.710938 120.804688 115.464844 116.785156 116.464844 C 130.140625 99.5 145.070312 84 153.222656 82.1875 C 163.019531 80.011719 137.253906 67.125 123.28125 83.820312 C 109.3125 100.515625 84.996094 109.949219 78.644531 102.875 C 75.40625 99.265625 82.457031 77.882812 99.6875 61.867188 C 116.253906 46.472656 142.789062 36.40625 151.769531 33.738281 C 170.097656 28.296875 173.90625 25.574219 173.722656 17.410156 Z M 98.839844 152.953125 C 98.035156 154.339844 96.265625 154.8125 94.878906 154.007812 C 93.496094 153.207031 93.023438 151.433594 93.824219 150.050781 C 98.460938 142.070312 104.664062 136.976562 111.148438 134.453125 C 116.082031 132.535156 121.167969 132.105469 125.871094 133.027344 C 130.625 133.960938 134.988281 136.269531 138.40625 139.816406 C 142.289062 143.839844 144.925781 149.429688 145.492188 156.355469 C 146.261719 165.734375 142.414062 172 136.804688 175.507812 C 134.207031 177.132812 131.230469 178.132812 128.167969 178.550781 C 125.144531 178.960938 122.039062 178.800781 119.152344 178.113281 C 112.476562 176.523438 106.804688 172.128906 105.40625 165.378906 C 101.332031 145.679688 120.523438 147.890625 120.578125 147.894531 C 122.167969 148.058594 123.324219 149.480469 123.164062 151.070312 C 123 152.664062 121.578125 153.820312 119.988281 153.65625 C 119.957031 153.652344 108.621094 152.347656 111.078125 164.21875 C 111.964844 168.503906 115.859375 171.363281 120.492188 172.464844 C 122.722656 172.996094 125.101562 173.121094 127.398438 172.808594 C 129.660156 172.503906 131.847656 171.769531 133.746094 170.585938 C 137.625 168.160156 140.273438 163.675781 139.710938 156.808594 C 139.257812 151.308594 137.222656 146.929688 134.234375 143.832031 C 131.664062 141.167969 128.367188 139.429688 124.757812 138.71875 C 121.097656 138.003906 117.113281 138.34375 113.234375 139.851562 C 107.910156 141.921875 102.765625 146.195312 98.839844 152.953125 Z M 98.839844 152.953125 "/></g><g clip-rule="nonzero" clip-path="url(#726fc72ba9)"><g clip-rule="nonzero" clip-path="url(#afd42b412c)"><g clip-rule="nonzero" clip-path="url(#f2c6a45c59)"><path style=" stroke:none;fill-rule:nonzero;fill:#a08e79;fill-opacity:1;" d="M 244.664062 87.601562 C 253.8125 74.921875 270.105469 70.925781 278.21875 84.15625 C 293.316406 108.695312 234.519531 132.082031 234.519531 132.082031 C 214.253906 105.007812 200.265625 82.628906 219.132812 70.40625 C 229.710938 63.535156 242.125 72.707031 244.664062 87.601562 Z M 244.664062 87.601562 "/></g></g></g></g></svg>